<svg width="16" height="16" fill="none" xmlns="http://www.w3.org/2000/svg"><path fill-rule="evenodd" clip-rule="evenodd" d="M8 15.11A7.111 7.111 0 1 0 8 .888 7.111 7.111 0 0 0 8 15.11zM8 16A8 8 0 1 0 8 0a8 8 0 0 0 0 16z" fill="#6B7280"/><path fill-rule="evenodd" clip-rule="evenodd" d="M9.722 8.415c1.78-1.319 3.902-1.85 5.326-1.94l.063 1.014c-1.274.08-3.197.565-4.788 1.744-1.57 1.162-2.829 3.006-2.829 5.877H6.483c0-3.225 1.438-5.36 3.24-6.695zm-3.445-.831c-1.78 1.318-3.902 1.85-5.325 1.94L.889 8.508c1.273-.08 3.197-.564 4.788-1.743C7.247 5.603 8.505 3.759 8.505.888h1.012c0 3.225-1.438 5.36-3.24 6.696z" fill="#6B7280"/><path fill-rule="evenodd" clip-rule="evenodd" d="M10.213 7.737c1.803 2.164 2.74 4.677 2.843 6.327l-1.01.064c-.087-1.398-.92-3.711-2.609-5.738C7.76 6.377 5.272 4.685 1.896 4.443l.072-1.014c3.702.266 6.43 2.13 8.245 4.308z" fill="#6B7280"/></svg>
