<svg width="16" height="16" fill="none" xmlns="http://www.w3.org/2000/svg"><path d="M6.476 6.477a.762.762 0 1 0-1.524 0 .762.762 0 0 0 1.524 0zm3.429 3.094a.762.762 0 0 0-1.044.274.99.99 0 0 1-1.722 0 .762.762 0 0 0-1.044-.274.762.762 0 0 0-.282 1.036 2.521 2.521 0 0 0 4.374 0 .761.761 0 0 0-.282-1.036zm.38-3.856a.762.762 0 1 0 0 1.524.762.762 0 0 0 0-1.524zM8 .382A7.619 7.619 0 1 0 8 15.62 7.619 7.619 0 0 0 8 .382zm0 13.714A6.096 6.096 0 0 1 5.714 2.34c-.007.11-.007.219 0 .328A2.286 2.286 0 0 0 8 4.954.762.762 0 0 0 8 3.43a.762.762 0 1 1 0-1.524 6.095 6.095 0 1 1 0 12.19z" fill="#6B7280"/></svg>
