<svg width="16" height="12" fill="none" xmlns="http://www.w3.org/2000/svg"><path d="M8.23 6.155c.388-.326.7-.729.913-1.182.214-.453.324-.945.324-1.444 0-.936-.383-1.833-1.066-2.495A3.7 3.7 0 0 0 5.826 0a3.7 3.7 0 0 0-2.575 1.034 3.475 3.475 0 0 0-1.066 2.495c0 .499.11.99.324 1.444.214.453.525.856.914 1.182A5.779 5.779 0 0 0 .93 8.237 5.522 5.522 0 0 0 0 11.294c0 .187.077.367.213.5a.74.74 0 0 0 1.03 0 .695.695 0 0 0 .214-.5c0-1.123.46-2.2 1.28-2.995a4.44 4.44 0 0 1 3.09-1.24 4.44 4.44 0 0 1 3.089 1.24 4.17 4.17 0 0 1 1.28 2.995c0 .187.076.367.213.5a.74.74 0 0 0 1.03 0 .695.695 0 0 0 .213-.5 5.523 5.523 0 0 0-.931-3.057 5.779 5.779 0 0 0-2.492-2.082zm-2.404-.508c-.432 0-.854-.124-1.214-.357a2.133 2.133 0 0 1-.804-.95 2.057 2.057 0 0 1-.125-1.224c.085-.41.293-.788.598-1.084a2.207 2.207 0 0 1 1.119-.58 2.25 2.25 0 0 1 1.262.121c.4.16.74.432.98.78.24.348.369.758.369 1.176 0 .562-.23 1.1-.64 1.498a2.22 2.22 0 0 1-1.545.62zm7.093.226c.466-.509.77-1.137.877-1.81.106-.672.01-1.36-.278-1.98A3.563 3.563 0 0 0 12.174.565 3.726 3.726 0 0 0 10.196 0a.74.74 0 0 0-.515.207.695.695 0 0 0-.214.499c0 .187.077.367.214.499a.74.74 0 0 0 .515.207c.58 0 1.135.223 1.545.62.41.397.64.936.64 1.497-.002.371-.103.735-.295 1.056-.191.32-.467.587-.798.773a.718.718 0 0 0-.262.25.69.69 0 0 0 .226.95l.284.183.094.05a5.049 5.049 0 0 1 2.135 1.84c.516.797.786 1.721.778 2.663 0 .187.077.367.214.5a.74.74 0 0 0 1.03 0 .695.695 0 0 0 .213-.5 6.199 6.199 0 0 0-.813-3.099 6.441 6.441 0 0 0-2.268-2.322z" fill="#6B7280"/></svg>
