<svg width="17" height="13" fill="none" xmlns="http://www.w3.org/2000/svg"><path d="M16.15 5.2h-2.125a.873.873 0 0 0-.604.246L12.367 6.51l-2.38-2.628a.85.85 0 0 0-.62-.26.873.873 0 0 0-.62.26L7.3 5.28H5.95a.864.864 0 0 0-.601.242.811.811 0 0 0-.25.582c0 .219.09.428.25.583.16.155.375.241.6.241h1.7a.874.874 0 0 0 .604-.239L9.35 5.586l2.38 2.629a.847.847 0 0 0 1.215.04l1.445-1.408h1.76a.864.864 0 0 0 .6-.241.811.811 0 0 0 .25-.583.811.811 0 0 0-.25-.583.864.864 0 0 0-.6-.24zM9.868 9.565L8.253 11.13a.852.852 0 0 1-.603.244.872.872 0 0 1-.604-.244L2.618 6.84a3.036 3.036 0 0 1-.68-.987 2.96 2.96 0 0 1 0-2.328c.157-.368.388-.704.68-.986a3.188 3.188 0 0 1 2.214-.887c.83 0 1.626.319 2.214.887a.852.852 0 0 0 .604.244.873.873 0 0 0 .603-.244 3.268 3.268 0 0 1 2.214-.858c.825 0 1.617.307 2.215.858.19.186.355.393.493.618.123.165.306.28.512.321.206.043.42.01.602-.093a.83.83 0 0 0 .383-.461.8.8 0 0 0-.035-.591A4.894 4.894 0 0 0 10.868.028 4.941 4.941 0 0 0 7.65.882 4.958 4.958 0 0 0 2.623.516 4.772 4.772 0 0 0 .705 2.244 4.572 4.572 0 0 0 0 4.688c0 .613.125 1.22.369 1.786.243.566.6 1.079 1.05 1.51l4.429 4.292A2.592 2.592 0 0 0 7.65 13c.676 0 1.324-.26 1.802-.723l1.598-1.549a.811.811 0 0 0 .247-.58.811.811 0 0 0-.247-.581.865.865 0 0 0-.591-.232.865.865 0 0 0-.59.232z" fill="#6B7280"/></svg>
