<svg width="16" height="16" fill="none" xmlns="http://www.w3.org/2000/svg"><path fill-rule="evenodd" clip-rule="evenodd" d="M8 0c.332 0 .601.269.601.6v7.47L11.2 9.46l1.473-.709a.601.601 0 0 1 .521 1.084l-.681.328 1.876 1.004a.601.601 0 0 1-.568 1.06l-.718-.384v.717a.601.601 0 0 1-1.202 0V11.2l-1.634-.875v2.174c0 1.39 1.015 2.345 2.335 2.296 1.17-.047 2.197-1.15 2.197-2.543v-1.541c0-1.148-.353-2.388-.963-3.464-.61-1.077-1.452-1.946-2.394-2.404-.554-.256-1.175.114-1.175.751v1.048a.601.601 0 0 1-1.202 0V5.594c0-1.58 1.595-2.443 2.89-1.84l.008.005c1.215.59 2.22 1.662 2.92 2.895C15.581 7.89 16 9.331 16 10.711v1.541c0 1.937-1.44 3.668-3.352 3.745h-.002c-2.009.074-3.582-1.436-3.582-3.498V9.68L8 9.111l-1.065.571a.614.614 0 0 1 .001.043v2.774c0 2.062-1.573 3.572-3.583 3.498h-.001C1.44 15.92 0 14.189 0 12.252v-1.541c0-1.38.418-2.822 1.119-4.057.699-1.233 1.704-2.305 2.919-2.895l.008-.004c1.295-.604 2.89.259 2.89 1.84v1.17a.601.601 0 1 1-1.202 0v-1.17c0-.638-.621-1.008-1.175-.752-.942.458-1.784 1.327-2.394 2.404-.61 1.076-.963 2.316-.963 3.464v1.541c0 1.393 1.027 2.496 2.197 2.543 1.32.049 2.335-.907 2.335-2.296v-2.174l-1.634.874v1.361a.601.601 0 0 1-1.202 0v-.717l-.718.384a.601.601 0 1 1-.568-1.06l1.877-1.004-.682-.328a.601.601 0 0 1 .521-1.084l1.473.71L7.4 8.07V.6c0-.331.269-.6.601-.6z" fill="#6B7280"/></svg>
