<svg width="18" height="18" fill="none" xmlns="http://www.w3.org/2000/svg"><path fill-rule="evenodd" clip-rule="evenodd" d="M.9 9a8.1 8.1 0 1 0 16.2 0A8.1 8.1 0 0 0 .9 9zM9 0a9 9 0 1 0 0 18A9 9 0 0 0 9 0z" fill="#6B7280"/><path d="M9.36 3.6h-.078c-1.94.032-.964 1.604-2.422 1.726-.107.007-.036.103.093.218.314.282.714.453 1.136.493l.121.01a1.47 1.47 0 0 0 2.573-.975c0-.797-.633-1.443-1.422-1.472zm-.05 3.42c-.192 0-1.993-.297-1.636 4.426l-1.207 2.672a.54.54 0 0 0 .493.761h1.1L8.29 17.1h2.365l-.16-2.27H11.7s.79.02 1.068-.508c.475-.9.436-3.048-1.658-5.052l-.457-1.275c-.16-.272-.332-.615-.611-.758-.007 0-.304-.218-.732-.218z" fill="#6B7280"/></svg>
